<svg xmlns="http://www.w3.org/2000/svg" xmlns:xlink="http://www.w3.org/1999/xlink" width="1500" zoomAndPan="magnify" viewBox="0 0 1125 374.999991" height="500" preserveAspectRatio="xMidYMid meet" version="1.0"><defs><g/><clipPath id="a7e11898e9"><path d="M 84.339844 97.75 L 355.722656 97.75 L 355.722656 277.296875 L 84.339844 277.296875 Z M 84.339844 97.75 " clip-rule="nonzero"/></clipPath><clipPath id="e3f68d00da"><path d="M 159.691406 97.75 L 355.699219 97.75 L 280.347656 277.25 L 84.339844 277.25 L 159.691406 97.75 " clip-rule="nonzero"/></clipPath><clipPath id="af84274c2f"><path d="M 295.59375 97.75 L 1040.871094 97.75 L 1040.871094 277.296875 L 295.59375 277.296875 Z M 295.59375 97.75 " clip-rule="nonzero"/></clipPath><clipPath id="0c9172a6da"><path d="M 370.945312 97.75 L 1040.660156 97.75 L 965.308594 277.25 L 295.59375 277.25 L 370.945312 97.75 " clip-rule="nonzero"/></clipPath><clipPath id="00d41c5c9d"><path d="M 173.632812 125.320312 L 266.632812 125.320312 L 266.632812 258.070312 L 173.632812 258.070312 Z M 173.632812 125.320312 " clip-rule="nonzero"/></clipPath></defs><g clip-path="url(#a7e11898e9)"><g clip-path="url(#e3f68d00da)"><path fill="#009ffa" d="M 84.339844 97.75 L 355.722656 97.75 L 355.722656 277.296875 L 84.339844 277.296875 Z M 84.339844 97.75 " fill-opacity="1" fill-rule="nonzero"/></g></g><g clip-path="url(#af84274c2f)"><g clip-path="url(#0c9172a6da)"><path fill="#322e2e" d="M 295.59375 97.75 L 1040.871094 97.75 L 1040.871094 277.296875 L 295.59375 277.296875 Z M 295.59375 97.75 " fill-opacity="1" fill-rule="nonzero"/></g></g><g clip-path="url(#00d41c5c9d)"><path fill="#ffffff" d="M 220.132812 125.320312 C 194.457031 125.320312 173.632812 146.128906 173.632812 171.78125 C 173.632812 206.628906 220.132812 258.066406 220.132812 258.066406 C 220.132812 258.066406 266.632812 206.628906 266.632812 171.78125 C 266.632812 146.128906 245.804688 125.320312 220.132812 125.320312 Z M 220.132812 188.375 C 210.964844 188.375 203.523438 180.941406 203.523438 171.78125 C 203.523438 162.621094 210.964844 155.1875 220.132812 155.1875 C 229.296875 155.1875 236.738281 162.621094 236.738281 171.78125 C 236.738281 180.941406 229.296875 188.375 220.132812 188.375 Z M 220.132812 188.375 " fill-opacity="1" fill-rule="nonzero"/></g><g fill="#ffffff" fill-opacity="1"><g transform="translate(376.158338, 227.753799)"><g><path d="M 35.125 0.78125 C 29.414062 0.78125 24.300781 -0.144531 19.78125 -2 C 15.257812 -3.851562 11.644531 -6.59375 8.9375 -10.21875 C 6.238281 -13.851562 4.816406 -18.226562 4.671875 -23.34375 L 24.890625 -23.34375 C 25.191406 -20.445312 26.191406 -18.238281 27.890625 -16.71875 C 29.597656 -15.207031 31.820312 -14.453125 34.5625 -14.453125 C 37.375 -14.453125 39.59375 -15.097656 41.21875 -16.390625 C 42.851562 -17.691406 43.671875 -19.488281 43.671875 -21.78125 C 43.671875 -23.707031 43.019531 -25.300781 41.71875 -26.5625 C 40.425781 -27.820312 38.835938 -28.859375 36.953125 -29.671875 C 35.066406 -30.484375 32.378906 -31.410156 28.890625 -32.453125 C 23.859375 -34.003906 19.75 -35.554688 16.5625 -37.109375 C 13.375 -38.671875 10.628906 -40.96875 8.328125 -44 C 6.035156 -47.039062 4.890625 -51.007812 4.890625 -55.90625 C 4.890625 -63.164062 7.519531 -68.847656 12.78125 -72.953125 C 18.039062 -77.066406 24.894531 -79.125 33.34375 -79.125 C 41.9375 -79.125 48.863281 -77.066406 54.125 -72.953125 C 59.382812 -68.847656 62.203125 -63.128906 62.578125 -55.796875 L 42.015625 -55.796875 C 41.859375 -58.316406 40.925781 -60.296875 39.21875 -61.734375 C 37.519531 -63.179688 35.335938 -63.90625 32.671875 -63.90625 C 30.378906 -63.90625 28.523438 -63.289062 27.109375 -62.0625 C 25.703125 -60.84375 25 -59.085938 25 -56.796875 C 25 -54.273438 26.1875 -52.3125 28.5625 -50.90625 C 30.9375 -49.5 34.640625 -47.976562 39.671875 -46.34375 C 44.710938 -44.644531 48.804688 -43.015625 51.953125 -41.453125 C 55.109375 -39.898438 57.832031 -37.640625 60.125 -34.671875 C 62.425781 -31.710938 63.578125 -27.898438 63.578125 -23.234375 C 63.578125 -18.785156 62.445312 -14.742188 60.1875 -11.109375 C 57.925781 -7.484375 54.644531 -4.59375 50.34375 -2.4375 C 46.050781 -0.289062 40.976562 0.78125 35.125 0.78125 Z M 35.125 0.78125 "/></g></g></g><g fill="#ffffff" fill-opacity="1"><g transform="translate(444.496783, 227.753799)"><g><path d="M 3.109375 -31.125 C 3.109375 -37.488281 4.3125 -43.078125 6.71875 -47.890625 C 9.132812 -52.710938 12.414062 -56.421875 16.5625 -59.015625 C 20.707031 -61.609375 25.335938 -62.90625 30.453125 -62.90625 C 34.828125 -62.90625 38.660156 -62.015625 41.953125 -60.234375 C 45.253906 -58.460938 47.789062 -56.128906 49.5625 -53.234375 L 49.5625 -62.015625 L 68.578125 -62.015625 L 68.578125 0 L 49.5625 0 L 49.5625 -8.78125 C 47.71875 -5.894531 45.144531 -3.5625 41.84375 -1.78125 C 38.550781 0 34.71875 0.890625 30.34375 0.890625 C 25.300781 0.890625 20.707031 -0.421875 16.5625 -3.046875 C 12.414062 -5.679688 9.132812 -9.425781 6.71875 -14.28125 C 4.3125 -19.132812 3.109375 -24.75 3.109375 -31.125 Z M 49.5625 -31.015625 C 49.5625 -35.753906 48.242188 -39.492188 45.609375 -42.234375 C 42.984375 -44.972656 39.785156 -46.34375 36.015625 -46.34375 C 32.234375 -46.34375 29.023438 -44.988281 26.390625 -42.28125 C 23.765625 -39.582031 22.453125 -35.863281 22.453125 -31.125 C 22.453125 -26.375 23.765625 -22.609375 26.390625 -19.828125 C 29.023438 -17.054688 32.234375 -15.671875 36.015625 -15.671875 C 39.785156 -15.671875 42.984375 -17.039062 45.609375 -19.78125 C 48.242188 -22.519531 49.5625 -26.265625 49.5625 -31.015625 Z M 49.5625 -31.015625 "/></g></g></g><g fill="#ffffff" fill-opacity="1"><g transform="translate(519.946874, 227.753799)"><g><path d="M 38.015625 -46.234375 L 27.78125 -46.234375 L 27.78125 0 L 8.78125 0 L 8.78125 -46.234375 L 1.890625 -46.234375 L 1.890625 -62.015625 L 8.78125 -62.015625 L 8.78125 -63.796875 C 8.78125 -71.429688 10.960938 -77.226562 15.328125 -81.1875 C 19.703125 -85.15625 26.113281 -87.140625 34.5625 -87.140625 C 35.96875 -87.140625 37.003906 -87.097656 37.671875 -87.015625 L 37.671875 -70.90625 C 34.046875 -71.125 31.488281 -70.601562 30 -69.34375 C 28.519531 -68.09375 27.78125 -65.835938 27.78125 -62.578125 L 27.78125 -62.015625 L 38.015625 -62.015625 Z M 38.015625 -46.234375 "/></g></g></g><g fill="#ffffff" fill-opacity="1"><g transform="translate(559.949885, 227.753799)"><g><path d="M 65.34375 -32.015625 C 65.34375 -30.234375 65.234375 -28.378906 65.015625 -26.453125 L 22 -26.453125 C 22.300781 -22.597656 23.539062 -19.648438 25.71875 -17.609375 C 27.90625 -15.578125 30.59375 -14.5625 33.78125 -14.5625 C 38.53125 -14.5625 41.828125 -16.5625 43.671875 -20.5625 L 63.90625 -20.5625 C 62.863281 -16.488281 60.988281 -12.820312 58.28125 -9.5625 C 55.582031 -6.300781 52.195312 -3.742188 48.125 -1.890625 C 44.050781 -0.0351562 39.492188 0.890625 34.453125 0.890625 C 28.378906 0.890625 22.96875 -0.40625 18.21875 -3 C 13.476562 -5.59375 9.773438 -9.296875 7.109375 -14.109375 C 4.441406 -18.929688 3.109375 -24.566406 3.109375 -31.015625 C 3.109375 -37.453125 4.421875 -43.078125 7.046875 -47.890625 C 9.679688 -52.710938 13.367188 -56.421875 18.109375 -59.015625 C 22.859375 -61.609375 28.304688 -62.90625 34.453125 -62.90625 C 40.453125 -62.90625 45.785156 -61.644531 50.453125 -59.125 C 55.117188 -56.601562 58.765625 -53.007812 61.390625 -48.34375 C 64.023438 -43.675781 65.34375 -38.234375 65.34375 -32.015625 Z M 45.90625 -37.015625 C 45.90625 -40.273438 44.789062 -42.863281 42.5625 -44.78125 C 40.34375 -46.707031 37.566406 -47.671875 34.234375 -47.671875 C 31.046875 -47.671875 28.359375 -46.742188 26.171875 -44.890625 C 23.984375 -43.046875 22.628906 -40.421875 22.109375 -37.015625 Z M 45.90625 -37.015625 "/></g></g></g><g fill="#ffffff" fill-opacity="1"><g transform="translate(628.399474, 227.753799)"><g><path d="M 46.671875 0 L 30.453125 -29.453125 L 25.890625 -29.453125 L 25.890625 0 L 6.890625 0 L 6.890625 -78.015625 L 38.78125 -78.015625 C 44.9375 -78.015625 50.179688 -76.941406 54.515625 -74.796875 C 58.847656 -72.648438 62.085938 -69.703125 64.234375 -65.953125 C 66.390625 -62.210938 67.46875 -58.046875 67.46875 -53.453125 C 67.46875 -48.265625 66.003906 -43.632812 63.078125 -39.5625 C 60.148438 -35.488281 55.832031 -32.597656 50.125 -30.890625 L 68.125 0 Z M 25.890625 -42.90625 L 37.671875 -42.90625 C 41.160156 -42.90625 43.773438 -43.753906 45.515625 -45.453125 C 47.253906 -47.160156 48.125 -49.570312 48.125 -52.6875 C 48.125 -55.644531 47.253906 -57.972656 45.515625 -59.671875 C 43.773438 -61.378906 41.160156 -62.234375 37.671875 -62.234375 L 25.890625 -62.234375 Z M 25.890625 -42.90625 "/></g></g></g><g fill="#ffffff" fill-opacity="1"><g transform="translate(700.849361, 227.753799)"><g><path d="M 35.125 0.890625 C 29.039062 0.890625 23.570312 -0.40625 18.71875 -3 C 13.875 -5.59375 10.0625 -9.296875 7.28125 -14.109375 C 4.5 -18.929688 3.109375 -24.566406 3.109375 -31.015625 C 3.109375 -37.378906 4.515625 -42.988281 7.328125 -47.84375 C 10.148438 -52.695312 14.003906 -56.421875 18.890625 -59.015625 C 23.785156 -61.609375 29.269531 -62.90625 35.34375 -62.90625 C 41.414062 -62.90625 46.894531 -61.609375 51.78125 -59.015625 C 56.675781 -56.421875 60.53125 -52.695312 63.34375 -47.84375 C 66.164062 -42.988281 67.578125 -37.378906 67.578125 -31.015625 C 67.578125 -24.640625 66.148438 -19.023438 63.296875 -14.171875 C 60.441406 -9.316406 56.550781 -5.59375 51.625 -3 C 46.695312 -0.40625 41.195312 0.890625 35.125 0.890625 Z M 35.125 -15.5625 C 38.75 -15.5625 41.835938 -16.894531 44.390625 -19.5625 C 46.953125 -22.226562 48.234375 -26.046875 48.234375 -31.015625 C 48.234375 -35.972656 46.988281 -39.785156 44.5 -42.453125 C 42.019531 -45.117188 38.96875 -46.453125 35.34375 -46.453125 C 31.632812 -46.453125 28.554688 -45.132812 26.109375 -42.5 C 23.671875 -39.875 22.453125 -36.046875 22.453125 -31.015625 C 22.453125 -26.046875 23.65625 -22.226562 26.0625 -19.5625 C 28.46875 -16.894531 31.488281 -15.5625 35.125 -15.5625 Z M 35.125 -15.5625 "/></g></g></g><g fill="#ffffff" fill-opacity="1"><g transform="translate(771.63245, 227.753799)"><g><path d="M 68.125 -62.015625 L 68.125 0 L 49.125 0 L 49.125 -8.453125 C 47.195312 -5.703125 44.582031 -3.492188 41.28125 -1.828125 C 37.988281 -0.160156 34.34375 0.671875 30.34375 0.671875 C 25.601562 0.671875 21.414062 -0.382812 17.78125 -2.5 C 14.15625 -4.613281 11.335938 -7.671875 9.328125 -11.671875 C 7.328125 -15.671875 6.328125 -20.375 6.328125 -25.78125 L 6.328125 -62.015625 L 25.234375 -62.015625 L 25.234375 -28.34375 C 25.234375 -24.1875 26.304688 -20.957031 28.453125 -18.65625 C 30.597656 -16.363281 33.488281 -15.21875 37.125 -15.21875 C 40.820312 -15.21875 43.742188 -16.363281 45.890625 -18.65625 C 48.046875 -20.957031 49.125 -24.1875 49.125 -28.34375 L 49.125 -62.015625 Z M 68.125 -62.015625 "/></g></g></g><g fill="#ffffff" fill-opacity="1"><g transform="translate(846.526941, 227.753799)"><g><path d="M 41.453125 -16.109375 L 41.453125 0 L 31.78125 0 C 24.894531 0 19.523438 -1.679688 15.671875 -5.046875 C 11.816406 -8.421875 9.890625 -13.925781 9.890625 -21.5625 L 9.890625 -46.234375 L 2.328125 -46.234375 L 2.328125 -62.015625 L 9.890625 -62.015625 L 9.890625 -77.125 L 28.890625 -77.125 L 28.890625 -62.015625 L 41.34375 -62.015625 L 41.34375 -46.234375 L 28.890625 -46.234375 L 28.890625 -21.34375 C 28.890625 -19.488281 29.332031 -18.148438 30.21875 -17.328125 C 31.113281 -16.515625 32.597656 -16.109375 34.671875 -16.109375 Z M 41.453125 -16.109375 "/></g></g></g><g fill="#ffffff" fill-opacity="1"><g transform="translate(891.641447, 227.753799)"><g><path d="M 65.34375 -32.015625 C 65.34375 -30.234375 65.234375 -28.378906 65.015625 -26.453125 L 22 -26.453125 C 22.300781 -22.597656 23.539062 -19.648438 25.71875 -17.609375 C 27.90625 -15.578125 30.59375 -14.5625 33.78125 -14.5625 C 38.53125 -14.5625 41.828125 -16.5625 43.671875 -20.5625 L 63.90625 -20.5625 C 62.863281 -16.488281 60.988281 -12.820312 58.28125 -9.5625 C 55.582031 -6.300781 52.195312 -3.742188 48.125 -1.890625 C 44.050781 -0.0351562 39.492188 0.890625 34.453125 0.890625 C 28.378906 0.890625 22.96875 -0.40625 18.21875 -3 C 13.476562 -5.59375 9.773438 -9.296875 7.109375 -14.109375 C 4.441406 -18.929688 3.109375 -24.566406 3.109375 -31.015625 C 3.109375 -37.453125 4.421875 -43.078125 7.046875 -47.890625 C 9.679688 -52.710938 13.367188 -56.421875 18.109375 -59.015625 C 22.859375 -61.609375 28.304688 -62.90625 34.453125 -62.90625 C 40.453125 -62.90625 45.785156 -61.644531 50.453125 -59.125 C 55.117188 -56.601562 58.765625 -53.007812 61.390625 -48.34375 C 64.023438 -43.675781 65.34375 -38.234375 65.34375 -32.015625 Z M 45.90625 -37.015625 C 45.90625 -40.273438 44.789062 -42.863281 42.5625 -44.78125 C 40.34375 -46.707031 37.566406 -47.671875 34.234375 -47.671875 C 31.046875 -47.671875 28.359375 -46.742188 26.171875 -44.890625 C 23.984375 -43.046875 22.628906 -40.421875 22.109375 -37.015625 Z M 45.90625 -37.015625 "/></g></g></g></svg>